<svg xmlns="http://www.w3.org/2000/svg" xmlns:xlink="http://www.w3.org/1999/xlink" viewBox="0 0 466.6666666666667 360" width="466.6666666666667" height="360"><path d="M 45.333,263.292 C 44.923,278.317 46.667,277.958 48.000,292.625" stroke-width="3.743" stroke="black" fill="none" stroke-linecap="round"></path><path d="M 48.000,292.625 C 53.971,308.776 51.590,309.317 58.667,325.292" stroke-width="2.662" stroke="black" fill="none" stroke-linecap="round"></path><path d="M 58.667,325.292 C 63.870,342.791 63.638,342.776 67.333,360.625" stroke-width="2.391" stroke="black" fill="none" stroke-linecap="round"></path><path d="M 67.333,360.625 C 69.986,377.269 70.537,377.124 72.000,393.958" stroke-width="2.395" stroke="black" fill="none" stroke-linecap="round"></path><path d="M 72.000,393.958 C 73.015,401.078 72.319,396.603 72.000,399.292" stroke-width="3.634" stroke="black" fill="none" stroke-linecap="round"></path><path d="M 72.000,399.292 C 61.805,382.679 64.681,386.411 55.333,364.625" stroke-width="3.282" stroke="black" fill="none" stroke-linecap="round"></path><path d="M 55.333,364.625 C 42.974,329.370 42.805,329.679 34.000,293.292" stroke-width="1.705" stroke="black" fill="none" stroke-linecap="round"></path><path d="M 34.000,293.292 C 22.667,262.971 26.641,263.703 22.667,233.292" stroke-width="1.655" stroke="black" fill="none" stroke-linecap="round"></path><path d="M 22.667,233.292 C 22.541,209.795 22.667,214.638 34.000,196.625" stroke-width="2.013" stroke="black" fill="none" stroke-linecap="round"></path><path d="M 34.000,196.625 C 50.144,186.807 44.874,184.128 67.333,181.958" stroke-width="2.199" stroke="black" fill="none" stroke-linecap="round"></path><path d="M 67.333,181.958 C 81.804,176.321 76.144,179.473 86.000,181.958" stroke-width="2.827" stroke="black" fill="none" stroke-linecap="round"></path><path d="M 86.000,181.958 C 92.832,197.610 92.471,190.654 88.667,210.625" stroke-width="2.715" stroke="black" fill="none" stroke-linecap="round"></path><path d="M 88.667,210.625 C 78.513,231.262 82.165,230.943 64.667,248.625" stroke-width="2.180" stroke="black" fill="none" stroke-linecap="round"></path><path d="M 184.667,193.958 C 169.907,202.344 170.333,202.958 156.000,211.958" stroke-width="3.953" stroke="black" fill="none" stroke-linecap="round"></path><path d="M 156.000,211.958 C 142.007,220.396 142.907,221.010 130.667,231.292" stroke-width="2.786" stroke="black" fill="none" stroke-linecap="round"></path><path d="M 130.667,231.292 C 124.586,237.513 125.007,236.729 122.000,244.625" stroke-width="3.212" stroke="black" fill="none" stroke-linecap="round"></path><path d="M 122.000,244.625 C 120.403,249.846 120.586,248.513 122.667,253.292" stroke-width="3.830" stroke="black" fill="none" stroke-linecap="round"></path><path d="M 122.667,253.292 C 130.515,260.166 128.069,261.513 137.333,267.958" stroke-width="3.268" stroke="black" fill="none" stroke-linecap="round"></path><path d="M 137.333,267.958 C 147.050,278.791 146.848,278.833 155.333,290.625" stroke-width="2.775" stroke="black" fill="none" stroke-linecap="round"></path><path d="M 155.333,290.625 C 165.654,301.784 163.383,302.125 170.000,314.625" stroke-width="2.684" stroke="black" fill="none" stroke-linecap="round"></path><path d="M 170.000,314.625 C 175.739,327.778 172.987,323.451 170.000,333.958" stroke-width="3.008" stroke="black" fill="none" stroke-linecap="round"></path><path d="M 170.000,333.958 C 153.663,346.567 158.405,346.445 135.333,351.958" stroke-width="2.389" stroke="black" fill="none" stroke-linecap="round"></path><path d="M 135.333,351.958 C 117.080,357.728 119.663,356.567 102.000,353.958" stroke-width="2.402" stroke="black" fill="none" stroke-linecap="round"></path><path d="M 102.000,353.958 C 89.495,348.615 91.746,351.395 84.667,339.292" stroke-width="2.760" stroke="black" fill="none" stroke-linecap="round"></path><path d="M 84.667,339.292 C 82.478,327.920 79.828,329.948 82.667,316.625" stroke-width="2.887" stroke="black" fill="none" stroke-linecap="round"></path><path d="M 82.667,316.625 C 82.564,301.467 82.812,307.920 85.333,299.292" stroke-width="3.168" stroke="black" fill="none" stroke-linecap="round"></path><path d="M 85.333,299.292 C 88.423,304.465 87.231,297.801 92.000,309.292" stroke-width="4.015" stroke="black" fill="none" stroke-linecap="round"></path><path d="M 92.000,309.292 C 104.384,339.652 109.423,332.798 127.333,355.958" stroke-width="2.039" stroke="black" fill="none" stroke-linecap="round"></path><path d="M 127.333,355.958 C 160.830,382.458 155.051,375.652 193.333,381.292" stroke-width="1.604" stroke="black" fill="none" stroke-linecap="round"></path><path d="M 193.333,381.292 C 229.500,371.461 225.830,380.125 257.333,351.292" stroke-width="1.508" stroke="black" fill="none" stroke-linecap="round"></path><path d="M 257.333,351.292 C 276.872,335.174 275.500,338.127 285.333,314.625" stroke-width="1.808" stroke="black" fill="none" stroke-linecap="round"></path><path d="M 285.333,314.625 C 291.314,292.763 293.205,295.507 290.000,271.958" stroke-width="1.984" stroke="black" fill="none" stroke-linecap="round"></path><path d="M 290.000,271.958 C 288.847,257.017 289.314,261.096 281.333,251.292" stroke-width="2.583" stroke="black" fill="none" stroke-linecap="round"></path><path d="M 281.333,251.292 C 269.796,246.307 274.847,246.350 262.000,250.625" stroke-width="2.968" stroke="black" fill="none" stroke-linecap="round"></path><path d="M 262.000,250.625 C 247.831,261.490 248.130,258.307 238.000,275.292" stroke-width="2.520" stroke="black" fill="none" stroke-linecap="round"></path><path d="M 238.000,275.292 C 229.624,287.585 230.498,285.824 227.333,299.292" stroke-width="2.672" stroke="black" fill="none" stroke-linecap="round"></path><path d="M 227.333,299.292 C 228.497,305.458 226.624,302.919 232.000,305.958" stroke-width="3.607" stroke="black" fill="none" stroke-linecap="round"></path><path d="M 232.000,305.958 C 242.895,307.132 240.163,307.125 250.667,302.625" stroke-width="3.311" stroke="black" fill="none" stroke-linecap="round"></path><path d="M 250.667,302.625 C 258.461,294.969 259.562,297.466 265.333,286.625" stroke-width="3.095" stroke="black" fill="none" stroke-linecap="round"></path><path d="M 265.333,286.625 C 268.547,278.910 267.795,283.636 269.333,279.958" stroke-width="3.845" stroke="black" fill="none" stroke-linecap="round"></path><path d="M 269.333,279.958 C 267.755,289.026 270.547,281.577 269.333,291.958" stroke-width="4.304" stroke="black" fill="none" stroke-linecap="round"></path><path d="M 269.333,291.958 C 272.160,287.917 270.088,293.360 274.000,288.625" stroke-width="4.968" stroke="black" fill="none" stroke-linecap="round"></path><path d="M 274.000,288.625 C 274.939,294.318 276.494,289.584 278.000,295.292" stroke-width="4.898" stroke="black" fill="none" stroke-linecap="round"></path><path d="M 278.000,295.292 C 284.046,295.954 282.273,296.651 288.667,293.292" stroke-width="4.172" stroke="black" fill="none" stroke-linecap="round"></path><path d="M 288.667,293.292 C 302.997,282.954 303.713,284.621 317.333,272.625" stroke-width="2.686" stroke="black" fill="none" stroke-linecap="round"></path><path d="M 317.333,272.625 C 335.946,262.609 333.997,260.620 350.667,248.625" stroke-width="2.270" stroke="black" fill="none" stroke-linecap="round"></path><path d="M 350.667,248.625 C 365.560,236.711 362.613,237.276 370.667,221.958" stroke-width="2.367" stroke="black" fill="none" stroke-linecap="round"></path><path d="M 370.667,221.958 C 371.981,208.777 374.560,210.711 368.667,196.625" stroke-width="2.648" stroke="black" fill="none" stroke-linecap="round"></path><path d="M 368.667,196.625 C 362.323,171.090 361.981,172.110 350.667,148.625" stroke-width="2.029" stroke="black" fill="none" stroke-linecap="round"></path><path d="M 350.667,148.625 C 342.986,134.198 343.990,135.757 332.000,125.958" stroke-width="2.390" stroke="black" fill="none" stroke-linecap="round"></path><path d="M 332.000,125.958 C 322.972,120.711 326.986,122.198 318.667,124.625" stroke-width="3.158" stroke="black" fill="none" stroke-linecap="round"></path><path d="M 318.667,124.625 C 303.227,137.218 308.305,134.044 302.667,152.625" stroke-width="2.632" stroke="black" fill="none" stroke-linecap="round"></path><path d="M 302.667,152.625 C 299.270,197.572 301.227,192.218 314.667,234.625" stroke-width="1.536" stroke="black" fill="none" stroke-linecap="round"></path><path d="M 314.667,234.625 C 331.903,275.250 329.604,270.572 363.333,298.625" stroke-width="1.389" stroke="black" fill="none" stroke-linecap="round"></path><path d="M 363.333,298.625 C 415.500,340.091 411.236,334.250 473.333,352.625" stroke-width="1.125" stroke="black" fill="none" stroke-linecap="round"></path><path d="M 473.333,352.625 C 527.966,355.032 523.166,363.425 578.667,345.292" stroke-width="1.125" stroke="black" fill="none" stroke-linecap="round"></path><path d="M 578.667,345.292 C 595.288,337.273 595.633,342.032 608.667,326.625" stroke-width="1.722" stroke="black" fill="none" stroke-linecap="round"></path></svg>